{"title":"Universal Soldier [1992] 720p H264 BRRip Dual Audio [Hin-Eng] {d","uid":8285769,"size":789750552,"categoryP":"video","categoryS":"hd___movies","magnet":"?xt=urn:btih:10d75101d719edbead19899bb1f8f2a63e5a8085&amp;dn=Universal+Soldier+%5B1992%5D+720p+H264+BRRip+Dual+Audio+%5BHin-Eng%5D+%7Bd&amp;tr=udp%3A%2F%2Ftracker.openbittorrent.com%3A80&amp;tr=udp%3A%2F%2Fopen.demonii.com%3A1337&amp;tr=udp%3A%2F%2Ftracker.coppersurfer.tk%3A6969&amp;tr=udp%3A%2F%2Fexodus.desync.com%3A6969","seeders":1,"leechers":0,"uploader":"pundir86","files":14,"time":1363941209,"description":"[URL=http://imageshack.us/photo/my-images/89/00125af6medium.jpg/][IMG]http://img89.imageshack.us/img89/1832/00125af6medium.jpg[/IMG][/URL]\n\n[URL=http://imageshack.us/photo/my-images/404/14592887.png/][IMG]http://img404.imageshack.us/img404/8905/14592887.png[/IMG][/URL]\n\n[URL=http://imageshack.us/photo/my-images/690/34653326.jpg/][IMG]http://img690.imageshack.us/img690/5862/34653326.jpg[/IMG][/URL]\n\n[URL=http://imageshack.us/photo/my-images/27/78107231.jpg/][IMG]http://img27.imageshack.us/img27/4325/78107231.jpg[/IMG][/URL]\n\n[URL=http://imageshack.us/photo/my-images/577/14236807.jpg/][IMG]http://img577.imageshack.us/img577/1841/14236807.jpg[/IMG][/URL]\n\n[URL=http://imageshack.us/photo/my-images/405/22055740.jpg/][IMG]http://img405.imageshack.us/img405/8731/22055740.jpg[/IMG][/URL]\n\n[URL=http://imgbox.com/acfI9FPf][IMG]http://t.imgbox.com/acfI9FPf.jpg[/IMG][/URL] \nGeneral\nComplete name                            : Universal Soldier [1992] 720p H264 BRRip Dual Audio [Hin-Eng] {deven101}.mkv\nFormat                                   : Matroska\nFormat version                           : Version 2\nFile size                                : 737 MiB\nDuration                                 : 1h 43mn\nOverall bit rate mode                    : Variable\nOverall bit rate                         : 993 Kbps\nMovie name                               : Universal Soldier [1992] 720p H264 BRRip Dual Audio [Hin-Eng] {deven101} \nEncoded date                             : UTC 2013-03-19 11:40:11\nWriting application                      : mkvmerge v5.7.0 ('The Whirlwind') built on Jul  8 2012 20:08:51\nWriting library                          : libebml v1.2.3 + libmatroska v1.3.0\n[URL=http://imgbox.com/abz5GPKa][IMG]http://t.imgbox.com/abz5GPKa.jpg[/IMG][/URL] \nVideo\nID                                       : 1\nFormat                                   : AVC\nFormat/Info                              : Advanced Video Codec\nFormat profile                           : &lt;a class=&quot;__cf_email__&quot; href=&quot;/cdn-cgi/l/email-protection&quot; data-cfemail=&quot;e0a8898788a0acd4ced0&quot;&gt;[email&amp;#160;protected]&lt;/a&gt;&lt;script cf-hash='f9e31' type=&quot;text/javascript&quot;&gt;\n/* &lt;![CDATA[ */!function(){try{var t=&quot;currentScript&quot;in document?document.currentScript:function(){for(var t=document.getElementsByTagName(&quot;script&quot;),e=t.length;e--;)if(t[e].getAttribute(&quot;cf-hash&quot;))return t[e]}();if(t&amp;&amp;t.previousSibling){var e,r,n,i,c=t.previousSibling,a=c.getAttribute(&quot;data-cfemail&quot;);if(a){for(e=&quot;&quot;,r=parseInt(a.substr(0,2),16),n=2;a.length-n;n+=2)i=parseInt(a.substr(n,2),16)^r,e+=String.fromCharCode(i);e=document.createTextNode(e),c.parentNode.replaceChild(e,c)}}}catch(u){}}();/* ]]&gt; */&lt;/script&gt;\nFormat settings, CABAC                   : Yes\nFormat settings, ReFrames                : 3 frames\nMuxing mode                              : Header stripping\nCodec ID                                 : V_MPEG4/ISO/AVC\nDuration                                 : 1h 43mn\nBit rate mode                            : Variable\nBit rate                                 : 676 Kbps\nMaximum bit rate                         : 25.0 Mbps\nWidth                                    : 1 280 pixels\nHeight                                   : 544 pixels\nDisplay aspect ratio                     : 2.35:1\nFrame rate mode                          : Constant\nFrame rate                               : 23.962 fps\nOriginal frame rate                      : 23.960 fps\nColor space                              : YUV\nChroma subsampling                       : 4:2:0\nBit depth                                : 8 bits\nScan type                                : Progressive\nBits/(Pixel*Frame)                       : 0.041\nStream size                              : 485 MiB (66%)\nTitle                                    : Universal Soldier [1992] 720p H264 BRRip Dual Audio [Hin-Eng] {deven101}\nWriting library                          : x264 core 120 r2120 0c7dab9\nEncoding settings                        : cabac=1 / ref=3 / deblock=1:0:0 / analyse=0x3:0x113 / me=hex / subme=7 / psy=1 / psy_rd=1.00:0.00 / mixed_ref=1 / me_range=16 / chroma_me=1 / trellis=1 / 8x8dct=1 / cqm=0 / deadzone=21,11 / fast_pskip=1 / chroma_qp_offset=-2 / threads=12 / sliced_threads=0 / nr=0 / decimate=1 / interlaced=0 / bluray_compat=0 / constrained_intra=0 / bframes=3 / b_pyramid=0 / b_adapt=1 / b_bias=0 / direct=1 / weightb=1 / open_gop=0 / weightp=2 / keyint=240 / keyint_min=24 / scenecut=40 / intra_refresh=0 / rc_lookahead=40 / rc=2pass / mbtree=1 / bitrate=676 / ratetol=1.0 / qcomp=0.60 / qpmin=0 / qpmax=69 / qpstep=4 / cplxblur=20.0 / qblur=0.5 / vbv_maxrate=25000 / vbv_bufsize=25000 / nal_hrd=vbr / ip_ratio=1.40 / aq=1:1.00\nDefault                                  : Yes\nForced                                   : No\n[URL=http://imgbox.com/acrBqrTJ][IMG]http://t.imgbox.com/acrBqrTJ.jpg[/IMG][/URL] \nAudio #1\nID                                       : 2\nFormat                                   : AC-3\nFormat/Info                              : Audio Coding 3\nMode extension                           : CM (complete main)\nFormat settings, Endianness              : Big\nMuxing mode                              : Header stripping\nCodec ID                                 : A_AC3\nDuration                                 : 1h 43mn\nBit rate mode                            : Constant\nBit rate                                 : 192 Kbps\nChannel(s)                               : 2 channels\nChannel positions                        : Front: L R\nSampling rate                            : 44.1 KHz\nBit depth                                : 16 bits\nCompression mode                         : Lossy\nDelay relative to video                  : 14ms\nStream size                              : 142 MiB (19%)\nTitle                                    : dev\nLanguage                                 : Hindi\nDefault                                  : Yes\nForced                                   : No\n[URL=http://imgbox.com/acrBqrTJ][IMG]http://t.imgbox.com/acrBqrTJ.jpg[/IMG][/URL] \nAudio #2\nID                                       : 3\nFormat                                   : AC-3\nFormat/Info                              : Audio Coding 3\nMode extension                           : CM (complete main)\nFormat settings, Endianness              : Big\nMuxing mode                              : Header stripping\nCodec ID                                 : A_AC3\nDuration                                 : 1h 43mn\nBit rate mode                            : Constant\nBit rate                                 : 128 Kbps\nChannel(s)                               : 6 channels\nChannel positions                        : Front: L C R, Side: L R, LFE\nSampling rate                            : 48.0 KHz\nBit depth                                : 16 bits\nCompression mode                         : Lossy\nDelay relative to video                  : 20ms\nStream size                              : 94.9 MiB (13%)\nTitle                                    : dev\nLanguage                                 : English\nDefault                                  : No\nForced                                   : No\n","torrent":{"xt":"urn:btih:10d75101d719edbead19899bb1f8f2a63e5a8085","amp;dn":"Universal+Soldier+%5B1992%5D+720p+H264+BRRip+Dual+Audio+%5BHin-Eng%5D+%7Bd","amp;tr":["udp%3A%2F%2Ftracker.openbittorrent.com%3A80","udp%3A%2F%2Fopen.demonii.com%3A1337","udp%3A%2F%2Ftracker.coppersurfer.tk%3A6969","udp%3A%2F%2Fexodus.desync.com%3A6969"],"infoHash":"10d75101d719edbead19899bb1f8f2a63e5a8085","infoHashBuffer":{"type":"Buffer","data":[16,215,81,1,215,25,237,190,173,25,137,155,177,248,242,166,62,90,128,133]},"announce":[],"urlList":[]}}